<?xml version="1.0" encoding="iso-8859-1"?>
<!-- Generator: Adobe Illustrator 19.0.0, SVG Export Plug-In . SVG Version: 6.00 Build 0)  -->
<?xml-stylesheet type="text/css" href="../css/style.css"?>
<svg xmlns="http://www.w3.org/2000/svg" xmlns:xlink="http://www.w3.org/1999/xlink" version="1.1" id="Capa_1" x="0px" y="0px" viewBox="0 0 511.992 511.992" style="enable-background:new 0 0 511.992 511.992;" xml:space="preserve" width="512px" height="512px">
<g>
	<g>
		<path class="nav-icon" d="M230.409,119.467v102.4h153.6v-102.4H230.409z M273.075,145.067h68.267c4.71,0,8.533,3.823,8.533,8.533    c0,4.71-3.823,8.533-8.533,8.533h-68.267c-4.71,0-8.533-3.823-8.533-8.533C264.542,148.89,268.365,145.067,273.075,145.067z     M358.409,196.267h-102.4c-4.71,0-8.533-3.823-8.533-8.533s3.823-8.533,8.533-8.533h102.4c4.71,0,8.533,3.823,8.533,8.533    S363.119,196.267,358.409,196.267z" fill="#FFFFFF"/>
	</g>
</g>
<g>
	<g>
		<path class="nav-icon" d="M457.225,0.034H136.704c-0.06,0-0.111-0.034-0.171-0.034c-0.06,0-0.102,0.034-0.162,0.034H81.152    c-11.81,0-21.419,9.609-21.419,21.419v73.276C40.286,98.697,25.6,115.925,25.6,136.533c0,9.293,3.123,18.261,8.73,25.626    c-5.402,7.151-8.73,15.949-8.73,25.574c0,9.293,3.123,18.261,8.73,25.626c-5.402,7.151-8.73,15.949-8.73,25.574    c0,9.293,3.123,18.261,8.73,25.626c-5.402,7.151-8.73,15.949-8.73,25.574c0,9.293,3.123,18.261,8.73,25.626    c-5.402,7.151-8.73,15.949-8.73,25.583c0,20.599,14.686,37.837,34.133,41.805v43.52V460.8v17.067v15.411    c0,10.317,8.397,18.714,18.714,18.714H457.89c15.718,0,28.501-12.792,28.501-28.501v-34.816V29.21    C486.409,13.124,473.318,0.034,457.225,0.034z M213.342,110.933L213.342,110.933c0-4.71,3.823-8.533,8.533-8.533h170.667    c4.71,0,8.533,3.823,8.533,8.533V230.4c0,4.71-3.823,8.533-8.533,8.533H221.875c-4.71,0-8.533-3.823-8.533-8.533V110.933z     M68.275,332.8c-4.71,0-8.533,3.823-8.533,8.533v0.043v23.987c-9.916-3.533-17.067-12.919-17.067-24.03    c0-14.114,11.486-25.6,25.6-25.6s25.6,11.486,25.6,25.6c0,4.71,3.823,8.533,8.533,8.533s8.533-3.823,8.533-8.533    c0-23.526-19.14-42.667-42.667-42.667c-7.68,0-14.788,2.202-21.018,5.768c-2.935-4.207-4.582-9.088-4.582-14.302    c0-14.114,11.486-25.6,25.6-25.6s25.6,11.486,25.6,25.6c0,4.71,3.823,8.533,8.533,8.533s8.533-3.823,8.533-8.533    c0-23.526-19.14-42.667-42.667-42.667c-7.68,0-14.788,2.202-21.018,5.769c-2.935-4.198-4.582-9.088-4.582-14.302    c0-14.114,11.486-25.6,25.6-25.6s25.6,11.486,25.6,25.6c0,4.71,3.823,8.533,8.533,8.533s8.533-3.823,8.533-8.533    c0-23.526-19.14-42.667-42.667-42.667c-7.68,0-14.788,2.202-21.018,5.769c-2.935-4.198-4.582-9.088-4.582-14.302    c0-14.114,11.486-25.6,25.6-25.6s25.6,11.486,25.6,25.6c0,4.71,3.823,8.533,8.533,8.533s8.533-3.823,8.533-8.533    c0-23.526-19.14-42.667-42.667-42.667c-7.68,0-14.788,2.202-21.018,5.769c-2.935-4.198-4.582-9.088-4.582-14.302    c0-14.114,11.486-25.6,25.6-25.6s25.6,11.486,25.6,25.6c0,4.71,3.823,8.533,8.533,8.533s8.533-3.823,8.533-8.533    c0-20.599-14.686-37.837-34.133-41.805V21.453c0-2.398,1.954-4.352,4.352-4.352h46.848V460.8h-51.2v-34.133v-85.299v-0.034    C76.809,336.623,72.986,332.8,68.275,332.8z M469.342,483.499c0,6.306-5.129,11.435-11.435,11.435H78.464    c-0.905,0-1.647-0.742-1.647-1.647v-15.42h380.416c2.091,0,4.122-0.239,6.093-0.666c0.64-0.137,1.229-0.401,1.843-0.572    c1.297-0.367,2.586-0.734,3.806-1.271c0.119-0.051,0.256-0.068,0.367-0.128V483.499z" fill="#FFFFFF"/>
	</g>
</g>
<g>
</g>
<g>
</g>
<g>
</g>
<g>
</g>
<g>
</g>
<g>
</g>
<g>
</g>
<g>
</g>
<g>
</g>
<g>
</g>
<g>
</g>
<g>
</g>
<g>
</g>
<g>
</g>
<g>
</g>
</svg>
